<svg xmlns="http://www.w3.org/2000/svg" viewBox="0 0 400 400" style="">
        <defs><path d="M102.00,200  a98,98 0 0,0 196.00,0 a98,98 0 1,0 -196.00,0 m14.70,0  a83.300,83.300 0 0,0 166.60,0 a83.300,83.300 0 1,0 -166.60,0" style="stroke:#3D1414;stroke-width:1;fill:#FC2311;fill-rule:evenodd" id="c1" /><path d="M200,42.00 l158,158 l-158,158 l-158,-158 l158,-158 m0,20.54 l137.46,137.46 l-137.46,137.46 l-137.46,-137.46 l137.46,-137.46" style="stroke:#141C3D;stroke-width:1;fill:#A46C69;fill-rule:evenodd" id="r1" /><path d="M200,0.00 L373.21,300.00 L26.79,300.00 L200,0.00 M200,26.00 L350.69,287.00 L49.31,287.00 L200,26.00" style="stroke:#1E1E33;stroke-width:1;fill:#FC9111;fill-rule:evenodd" id="t1" /><path d="M124.00,124.00 h152.00 v152.00 h-152.00 v-152.00 m7.60,7.60 h136.80 v136.80 h-136.80 v-136.80" style="stroke:#14173D;stroke-width:1;fill:#4C36C1;fill-rule:evenodd" id="q1" /><path id="m1" d="M211.33,34.25 a17,17 0 1,0 0,25.50 a12.75,12.75 0 0,1 0,-25.50" style="stroke:#000;stroke-width:1;fill:#fcfa11;fill-rule:evenodd" /><g id="l1"><path d="M200,25.20  a20.24,20.24 0 0,1 0,33.12 a20.24,20.24 0 0,1 0,-33.12" style="stroke:#000;stroke-width:1;fill:#fc11e1;fill-rule:evenodd" transform="rotate(-40 200 62.00)" />
        <path d="M200,25.20  a20.24,20.24 0 0,1 0,33.12 a20.24,20.24 0 0,1 0,-33.12" style="stroke:#000;stroke-width:1;fill:#fc11e1;fill-rule:evenodd" transform="rotate(-20 200 62.00)" />
        <path d="M200,25.20  a20.24,20.24 0 0,1 0,33.12 a20.24,20.24 0 0,1 0,-33.12" style="stroke:#000;stroke-width:1;fill:#fc11e1;fill-rule:evenodd" transform="rotate(40 200 62.00)" />
        <path d="M200,25.20  a20.24,20.24 0 0,1 0,33.12 a20.24,20.24 0 0,1 0,-33.12" style="stroke:#000;stroke-width:1;fill:#fc11e1;fill-rule:evenodd" transform="rotate(20 200 62.00)" />
        <path d="M200,25.20  a20.24,20.24 0 0,1 0,33.12 a20.24,20.24 0 0,1 0,-33.12" style="stroke:#000;stroke-width:1;fill:#fc11e1;fill-rule:evenodd" /></g></defs>
        <rect x="0" y="0" width="400" height="400" rx="0" ry="0" style="fill:#02040b" />
        <use href="#t1" transform="matrix(1.00 0 0 1.00 0.00 0.00) rotate(0.00 200 200)"/>
        <use href="#r1" transform="matrix(0.79 0 0 0.79 42.00 42.00) rotate(0.00 200 200)" />
        <use href="#c1" transform="matrix(0.62 0 0 0.62 76.00 76.00) rotate(0.00 200 200)" /><use href="#c1" transform="matrix(0.53 0 0 0.53 94.00 94.00) rotate(0.00 200 200)" />
        <use href="#c1" transform="matrix(0.49 0 0 0.49 102.00 102.00) rotate(0.00 200 200)" /><use href="#q1" transform="matrix(0.45 0 0 0.45 110.00 110.00) rotate(0.00 200 200)" />
        <use href="#q1" transform="matrix(0.38 0 0 0.38 124.00 124.00) rotate(0.00 200 200)" /><use href="#t1" transform="matrix(0.32 0 0 0.32 136.00 136.00) rotate(0.00 200 200)"/><use href="#t1" transform="matrix(0.32 0 0 0.32 136.00 136.00) rotate(25.71 200 200)"/><use href="#t1" transform="matrix(0.32 0 0 0.32 136.00 136.00) rotate(51.43 200 200)"/><use href="#t1" transform="matrix(0.32 0 0 0.32 136.00 136.00) rotate(77.14 200 200)"/><use href="#t1" transform="matrix(0.32 0 0 0.32 136.00 136.00) rotate(102.86 200 200)"/><use href="#t1" transform="matrix(0.32 0 0 0.32 136.00 136.00) rotate(128.57 200 200)"/><use href="#t1" transform="matrix(0.32 0 0 0.32 136.00 136.00) rotate(154.29 200 200)"/><use href="#t1" transform="matrix(0.32 0 0 0.32 136.00 136.00) rotate(180.00 200 200)"/><use href="#t1" transform="matrix(0.32 0 0 0.32 136.00 136.00) rotate(205.71 200 200)"/><use href="#t1" transform="matrix(0.32 0 0 0.32 136.00 136.00) rotate(231.43 200 200)"/><use href="#t1" transform="matrix(0.32 0 0 0.32 136.00 136.00) rotate(257.14 200 200)"/><use href="#t1" transform="matrix(0.32 0 0 0.32 136.00 136.00) rotate(282.86 200 200)"/><use href="#t1" transform="matrix(0.32 0 0 0.32 136.00 136.00) rotate(308.57 200 200)"/><use href="#t1" transform="matrix(0.32 0 0 0.32 136.00 136.00) rotate(334.29 200 200)"/>
        <use href="#l1" transform="matrix(0.79 0 0 0.79 42.00 42.00) rotate(0.00 200 200)" /><use href="#l1" transform="matrix(0.79 0 0 0.79 42.00 42.00) rotate(120.00 200 200)" /><use href="#l1" transform="matrix(0.79 0 0 0.79 42.00 42.00) rotate(240.00 200 200)" />
        <use href="#m1" transform="matrix(0.62 0 0 0.62 76.00 76.00) rotate(0.00 200 200)" /><use href="#m1" transform="matrix(0.62 0 0 0.62 76.00 76.00) rotate(40.00 200 200)" /><use href="#m1" transform="matrix(0.62 0 0 0.62 76.00 76.00) rotate(80.00 200 200)" /><use href="#m1" transform="matrix(0.62 0 0 0.62 76.00 76.00) rotate(120.00 200 200)" /><use href="#m1" transform="matrix(0.62 0 0 0.62 76.00 76.00) rotate(160.00 200 200)" /><use href="#m1" transform="matrix(0.62 0 0 0.62 76.00 76.00) rotate(200.00 200 200)" /><use href="#m1" transform="matrix(0.62 0 0 0.62 76.00 76.00) rotate(240.00 200 200)" /><use href="#m1" transform="matrix(0.62 0 0 0.62 76.00 76.00) rotate(280.00 200 200)" /><use href="#m1" transform="matrix(0.62 0 0 0.62 76.00 76.00) rotate(320.00 200 200)" />
      </svg>