<svg xmlns="http://www.w3.org/2000/svg" viewBox="0 0 400 400" style="">
        <defs><path d="M142.00,200  a57.99999999999999,57.99999999999999 0 0,0 116.00,0 a57.99999999999999,57.99999999999999 0 1,0 -116.00,0 m8.70,0  a49.300,49.300 0 0,0 98.60,0 a49.300,49.300 0 1,0 -98.60,0" style="stroke:#3D1414;stroke-width:1;fill:#FC4811;fill-rule:evenodd" id="c1" /><path d="M200,0.00 L373.21,300.00 L26.79,300.00 L200,0.00 M200,26.00 L350.69,287.00 L49.31,287.00 L200,26.00" style="stroke:#1E1E33;stroke-width:1;fill:#DF91DE;fill-rule:evenodd" id="t1" /><path d="M102.00,102.00 h196.00 v196.00 h-196.00 v-196.00 m9.80,9.80 h176.40 v176.40 h-176.40 v-176.40" style="stroke:#14173D;stroke-width:1;fill:#4C36C1;fill-rule:evenodd" id="q1" /><path id="m1" d="M212.27,20.60 a18.4,18.4 0 1,0 0,27.60 a13.80,13.80 0 0,1 0,-27.60" style="stroke:#000;stroke-width:1;fill:#fcfa11;fill-rule:evenodd" /><g id="l1"><path d="M200,49.90  a17.38,17.38 0 0,1 0,28.44 a17.38,17.38 0 0,1 0,-28.44" style="stroke:#000;stroke-width:1;fill:#fc11e1;fill-rule:evenodd" transform="rotate(-40 200 81.50)" />
        <path d="M200,49.90  a17.38,17.38 0 0,1 0,28.44 a17.38,17.38 0 0,1 0,-28.44" style="stroke:#000;stroke-width:1;fill:#fc11e1;fill-rule:evenodd" transform="rotate(-20 200 81.50)" />
        <path d="M200,49.90  a17.38,17.38 0 0,1 0,28.44 a17.38,17.38 0 0,1 0,-28.44" style="stroke:#000;stroke-width:1;fill:#fc11e1;fill-rule:evenodd" transform="rotate(40 200 81.50)" />
        <path d="M200,49.90  a17.38,17.38 0 0,1 0,28.44 a17.38,17.38 0 0,1 0,-28.44" style="stroke:#000;stroke-width:1;fill:#fc11e1;fill-rule:evenodd" transform="rotate(20 200 81.50)" />
        <path d="M200,49.90  a17.38,17.38 0 0,1 0,28.44 a17.38,17.38 0 0,1 0,-28.44" style="stroke:#000;stroke-width:1;fill:#fc11e1;fill-rule:evenodd" /></g></defs>
        <rect x="0" y="0" width="400" height="400" rx="0" ry="0" style="fill:#14213d" />
        <use href="#q1" transform="matrix(1.00 0 0 1.00 0.00 0.00) rotate(0.00 200 200)" /><use href="#t1" transform="matrix(0.85 0 0 0.85 30.00 30.00) rotate(0.00 200 200)"/><use href="#t1" transform="matrix(0.85 0 0 0.85 30.00 30.00) rotate(27.69 200 200)"/><use href="#t1" transform="matrix(0.85 0 0 0.85 30.00 30.00) rotate(55.38 200 200)"/><use href="#t1" transform="matrix(0.85 0 0 0.85 30.00 30.00) rotate(83.08 200 200)"/><use href="#t1" transform="matrix(0.85 0 0 0.85 30.00 30.00) rotate(110.77 200 200)"/><use href="#t1" transform="matrix(0.85 0 0 0.85 30.00 30.00) rotate(138.46 200 200)"/><use href="#t1" transform="matrix(0.85 0 0 0.85 30.00 30.00) rotate(166.15 200 200)"/><use href="#t1" transform="matrix(0.85 0 0 0.85 30.00 30.00) rotate(193.85 200 200)"/><use href="#t1" transform="matrix(0.85 0 0 0.85 30.00 30.00) rotate(221.54 200 200)"/><use href="#t1" transform="matrix(0.85 0 0 0.85 30.00 30.00) rotate(249.23 200 200)"/><use href="#t1" transform="matrix(0.85 0 0 0.85 30.00 30.00) rotate(276.92 200 200)"/><use href="#t1" transform="matrix(0.85 0 0 0.85 30.00 30.00) rotate(304.62 200 200)"/><use href="#t1" transform="matrix(0.85 0 0 0.85 30.00 30.00) rotate(332.31 200 200)"/>
        <use href="#t1" transform="matrix(0.73 0 0 0.73 54.00 54.00) rotate(0.00 200 200)"/><use href="#t1" transform="matrix(0.73 0 0 0.73 54.00 54.00) rotate(36.00 200 200)"/><use href="#t1" transform="matrix(0.73 0 0 0.73 54.00 54.00) rotate(72.00 200 200)"/><use href="#t1" transform="matrix(0.73 0 0 0.73 54.00 54.00) rotate(108.00 200 200)"/><use href="#t1" transform="matrix(0.73 0 0 0.73 54.00 54.00) rotate(144.00 200 200)"/><use href="#t1" transform="matrix(0.73 0 0 0.73 54.00 54.00) rotate(180.00 200 200)"/><use href="#t1" transform="matrix(0.73 0 0 0.73 54.00 54.00) rotate(216.00 200 200)"/><use href="#t1" transform="matrix(0.73 0 0 0.73 54.00 54.00) rotate(252.00 200 200)"/><use href="#t1" transform="matrix(0.73 0 0 0.73 54.00 54.00) rotate(288.00 200 200)"/><use href="#t1" transform="matrix(0.73 0 0 0.73 54.00 54.00) rotate(324.00 200 200)"/><use href="#q1" transform="matrix(0.67 0 0 0.67 66.00 66.00) rotate(0.00 200 200)" />
        <use href="#q1" transform="matrix(0.57 0 0 0.57 86.00 86.00) rotate(0.00 200 200)" /><use href="#q1" transform="matrix(0.57 0 0 0.57 86.00 86.00) rotate(27.69 200 200)" /><use href="#q1" transform="matrix(0.57 0 0 0.57 86.00 86.00) rotate(55.38 200 200)" /><use href="#q1" transform="matrix(0.57 0 0 0.57 86.00 86.00) rotate(83.08 200 200)" /><use href="#q1" transform="matrix(0.57 0 0 0.57 86.00 86.00) rotate(110.77 200 200)" /><use href="#q1" transform="matrix(0.57 0 0 0.57 86.00 86.00) rotate(138.46 200 200)" /><use href="#q1" transform="matrix(0.57 0 0 0.57 86.00 86.00) rotate(166.15 200 200)" /><use href="#q1" transform="matrix(0.57 0 0 0.57 86.00 86.00) rotate(193.85 200 200)" /><use href="#q1" transform="matrix(0.57 0 0 0.57 86.00 86.00) rotate(221.54 200 200)" /><use href="#q1" transform="matrix(0.57 0 0 0.57 86.00 86.00) rotate(249.23 200 200)" /><use href="#q1" transform="matrix(0.57 0 0 0.57 86.00 86.00) rotate(276.92 200 200)" /><use href="#q1" transform="matrix(0.57 0 0 0.57 86.00 86.00) rotate(304.62 200 200)" /><use href="#q1" transform="matrix(0.57 0 0 0.57 86.00 86.00) rotate(332.31 200 200)" /><use href="#q1" transform="matrix(0.53 0 0 0.53 94.00 94.00) rotate(0.00 200 200)" /><use href="#q1" transform="matrix(0.53 0 0 0.53 94.00 94.00) rotate(72.00 200 200)" /><use href="#q1" transform="matrix(0.53 0 0 0.53 94.00 94.00) rotate(144.00 200 200)" /><use href="#q1" transform="matrix(0.53 0 0 0.53 94.00 94.00) rotate(216.00 200 200)" /><use href="#q1" transform="matrix(0.53 0 0 0.53 94.00 94.00) rotate(288.00 200 200)" />
        <use href="#q1" transform="matrix(0.49 0 0 0.49 102.00 102.00) rotate(0.00 200 200)" /><use href="#c1" transform="matrix(0.41 0 0 0.41 118.00 118.00) rotate(0.00 200 200)" />
        
        <use href="#c1" transform="matrix(0.29 0 0 0.29 142.00 142.00) rotate(0.00 200 200)" /><use href="#m1" transform="matrix(1.00 0 0 1.00 0.00 0.00) rotate(0.00 200 200)" /><use href="#m1" transform="matrix(1.00 0 0 1.00 0.00 0.00) rotate(60.00 200 200)" /><use href="#m1" transform="matrix(1.00 0 0 1.00 0.00 0.00) rotate(120.00 200 200)" /><use href="#m1" transform="matrix(1.00 0 0 1.00 0.00 0.00) rotate(180.00 200 200)" /><use href="#m1" transform="matrix(1.00 0 0 1.00 0.00 0.00) rotate(240.00 200 200)" /><use href="#m1" transform="matrix(1.00 0 0 1.00 0.00 0.00) rotate(300.00 200 200)" /><use href="#m1" transform="matrix(0.79 0 0 0.79 42.00 42.00) rotate(0.00 200 200)" /><use href="#m1" transform="matrix(0.79 0 0 0.79 42.00 42.00) rotate(45.00 200 200)" /><use href="#m1" transform="matrix(0.79 0 0 0.79 42.00 42.00) rotate(90.00 200 200)" /><use href="#m1" transform="matrix(0.79 0 0 0.79 42.00 42.00) rotate(135.00 200 200)" /><use href="#m1" transform="matrix(0.79 0 0 0.79 42.00 42.00) rotate(180.00 200 200)" /><use href="#m1" transform="matrix(0.79 0 0 0.79 42.00 42.00) rotate(225.00 200 200)" /><use href="#m1" transform="matrix(0.79 0 0 0.79 42.00 42.00) rotate(270.00 200 200)" /><use href="#m1" transform="matrix(0.79 0 0 0.79 42.00 42.00) rotate(315.00 200 200)" />
        <use href="#l1" transform="matrix(0.62 0 0 0.62 76.00 76.00) rotate(0.00 200 200)" /><use href="#l1" transform="matrix(0.62 0 0 0.62 76.00 76.00) rotate(72.00 200 200)" /><use href="#l1" transform="matrix(0.62 0 0 0.62 76.00 76.00) rotate(144.00 200 200)" /><use href="#l1" transform="matrix(0.62 0 0 0.62 76.00 76.00) rotate(216.00 200 200)" /><use href="#l1" transform="matrix(0.62 0 0 0.62 76.00 76.00) rotate(288.00 200 200)" /><use href="#l1" transform="matrix(0.49 0 0 0.49 102.00 102.00) rotate(0.00 200 200)" /><use href="#l1" transform="matrix(0.49 0 0 0.49 102.00 102.00) rotate(90.00 200 200)" /><use href="#l1" transform="matrix(0.49 0 0 0.49 102.00 102.00) rotate(180.00 200 200)" /><use href="#l1" transform="matrix(0.49 0 0 0.49 102.00 102.00) rotate(270.00 200 200)" />
      </svg>