<svg xmlns="http://www.w3.org/2000/svg" viewBox="0 0 400 400" style="">
        <defs><path d="M142.00,200  a57.99999999999999,57.99999999999999 0 0,0 116.00,0 a57.99999999999999,57.99999999999999 0 1,0 -116.00,0 m8.70,0  a49.300,49.300 0 0,0 98.60,0 a49.300,49.300 0 1,0 -98.60,0" style="stroke:#3D1414;stroke-width:1;fill:#FC4811;fill-rule:evenodd" id="c1" /><path d="M200,130.00 l70,70 l-70,70 l-70,-70 l70,-70 m0,9.10 l60.9,60.9 l-60.9,60.9 l-60.9,-60.9 l60.9,-60.9" style="stroke:#141C3D;stroke-width:1;fill:#875A87;fill-rule:evenodd" id="r1" /><path d="M124.00,124.00 h152.00 v152.00 h-152.00 v-152.00 m7.60,7.60 h136.80 v136.80 h-136.80 v-136.80" style="stroke:#14173D;stroke-width:1;fill:#4C36C1;fill-rule:evenodd" id="q1" /><path id="m1" d="M212.27,20.60 a18.4,18.4 0 1,0 0,27.60 a13.80,13.80 0 0,1 0,-27.60" style="stroke:#000;stroke-width:1;fill:#fcfa11;fill-rule:evenodd" /><g id="l1"><path d="M200,49.90  a17.38,17.38 0 0,1 0,28.44 a17.38,17.38 0 0,1 0,-28.44" style="stroke:#000;stroke-width:1;fill:#fc11e1;fill-rule:evenodd" transform="rotate(-40 200 81.50)" />
        <path d="M200,49.90  a17.38,17.38 0 0,1 0,28.44 a17.38,17.38 0 0,1 0,-28.44" style="stroke:#000;stroke-width:1;fill:#fc11e1;fill-rule:evenodd" transform="rotate(-20 200 81.50)" />
        <path d="M200,49.90  a17.38,17.38 0 0,1 0,28.44 a17.38,17.38 0 0,1 0,-28.44" style="stroke:#000;stroke-width:1;fill:#fc11e1;fill-rule:evenodd" transform="rotate(40 200 81.50)" />
        <path d="M200,49.90  a17.38,17.38 0 0,1 0,28.44 a17.38,17.38 0 0,1 0,-28.44" style="stroke:#000;stroke-width:1;fill:#fc11e1;fill-rule:evenodd" transform="rotate(20 200 81.50)" />
        <path d="M200,49.90  a17.38,17.38 0 0,1 0,28.44 a17.38,17.38 0 0,1 0,-28.44" style="stroke:#000;stroke-width:1;fill:#fc11e1;fill-rule:evenodd" /></g></defs>
        <rect x="0" y="0" width="400" height="400" rx="0" ry="0" style="fill:#ACACAC" />
        <use href="#q1" transform="matrix(0.92 0 0 0.92 16.00 16.00) rotate(0.00 200 200)" /><use href="#q1" transform="matrix(0.92 0 0 0.92 16.00 16.00) rotate(24.00 200 200)" /><use href="#q1" transform="matrix(0.92 0 0 0.92 16.00 16.00) rotate(48.00 200 200)" /><use href="#q1" transform="matrix(0.92 0 0 0.92 16.00 16.00) rotate(72.00 200 200)" /><use href="#q1" transform="matrix(0.92 0 0 0.92 16.00 16.00) rotate(96.00 200 200)" /><use href="#q1" transform="matrix(0.92 0 0 0.92 16.00 16.00) rotate(120.00 200 200)" /><use href="#q1" transform="matrix(0.92 0 0 0.92 16.00 16.00) rotate(144.00 200 200)" /><use href="#q1" transform="matrix(0.92 0 0 0.92 16.00 16.00) rotate(168.00 200 200)" /><use href="#q1" transform="matrix(0.92 0 0 0.92 16.00 16.00) rotate(192.00 200 200)" /><use href="#q1" transform="matrix(0.92 0 0 0.92 16.00 16.00) rotate(216.00 200 200)" /><use href="#q1" transform="matrix(0.92 0 0 0.92 16.00 16.00) rotate(240.00 200 200)" /><use href="#q1" transform="matrix(0.92 0 0 0.92 16.00 16.00) rotate(264.00 200 200)" /><use href="#q1" transform="matrix(0.92 0 0 0.92 16.00 16.00) rotate(288.00 200 200)" /><use href="#q1" transform="matrix(0.92 0 0 0.92 16.00 16.00) rotate(312.00 200 200)" /><use href="#q1" transform="matrix(0.92 0 0 0.92 16.00 16.00) rotate(336.00 200 200)" /><use href="#r1" transform="matrix(0.85 0 0 0.85 30.00 30.00) rotate(0.00 200 200)" />
        <use href="#q1" transform="matrix(0.79 0 0 0.79 42.00 42.00) rotate(0.00 200 200)" /><use href="#q1" transform="matrix(0.79 0 0 0.79 42.00 42.00) rotate(51.43 200 200)" /><use href="#q1" transform="matrix(0.79 0 0 0.79 42.00 42.00) rotate(102.86 200 200)" /><use href="#q1" transform="matrix(0.79 0 0 0.79 42.00 42.00) rotate(154.29 200 200)" /><use href="#q1" transform="matrix(0.79 0 0 0.79 42.00 42.00) rotate(205.71 200 200)" /><use href="#q1" transform="matrix(0.79 0 0 0.79 42.00 42.00) rotate(257.14 200 200)" /><use href="#q1" transform="matrix(0.79 0 0 0.79 42.00 42.00) rotate(308.57 200 200)" /><use href="#c1" transform="matrix(0.73 0 0 0.73 54.00 54.00) rotate(0.00 200 200)" />
        <use href="#r1" transform="matrix(0.57 0 0 0.57 86.00 86.00) rotate(0.00 200 200)" />
        <use href="#r1" transform="matrix(0.49 0 0 0.49 102.00 102.00) rotate(0.00 200 200)" /><use href="#r1" transform="matrix(0.49 0 0 0.49 102.00 102.00) rotate(72.00 200 200)" /><use href="#r1" transform="matrix(0.49 0 0 0.49 102.00 102.00) rotate(144.00 200 200)" /><use href="#r1" transform="matrix(0.49 0 0 0.49 102.00 102.00) rotate(216.00 200 200)" /><use href="#r1" transform="matrix(0.49 0 0 0.49 102.00 102.00) rotate(288.00 200 200)" /><use href="#q1" transform="matrix(0.45 0 0 0.45 110.00 110.00) rotate(0.00 200 200)" />
        <use href="#q1" transform="matrix(0.38 0 0 0.38 124.00 124.00) rotate(0.00 200 200)" /><use href="#q1" transform="matrix(0.38 0 0 0.38 124.00 124.00) rotate(24.00 200 200)" /><use href="#q1" transform="matrix(0.38 0 0 0.38 124.00 124.00) rotate(48.00 200 200)" /><use href="#q1" transform="matrix(0.38 0 0 0.38 124.00 124.00) rotate(72.00 200 200)" /><use href="#q1" transform="matrix(0.38 0 0 0.38 124.00 124.00) rotate(96.00 200 200)" /><use href="#q1" transform="matrix(0.38 0 0 0.38 124.00 124.00) rotate(120.00 200 200)" /><use href="#q1" transform="matrix(0.38 0 0 0.38 124.00 124.00) rotate(144.00 200 200)" /><use href="#q1" transform="matrix(0.38 0 0 0.38 124.00 124.00) rotate(168.00 200 200)" /><use href="#q1" transform="matrix(0.38 0 0 0.38 124.00 124.00) rotate(192.00 200 200)" /><use href="#q1" transform="matrix(0.38 0 0 0.38 124.00 124.00) rotate(216.00 200 200)" /><use href="#q1" transform="matrix(0.38 0 0 0.38 124.00 124.00) rotate(240.00 200 200)" /><use href="#q1" transform="matrix(0.38 0 0 0.38 124.00 124.00) rotate(264.00 200 200)" /><use href="#q1" transform="matrix(0.38 0 0 0.38 124.00 124.00) rotate(288.00 200 200)" /><use href="#q1" transform="matrix(0.38 0 0 0.38 124.00 124.00) rotate(312.00 200 200)" /><use href="#q1" transform="matrix(0.38 0 0 0.38 124.00 124.00) rotate(336.00 200 200)" /><use href="#r1" transform="matrix(0.35 0 0 0.35 130.00 130.00) rotate(0.00 200 200)" />
        <use href="#c1" transform="matrix(0.29 0 0 0.29 142.00 142.00) rotate(0.00 200 200)" /><use href="#m1" transform="matrix(0.79 0 0 0.79 42.00 42.00) rotate(0.00 200 200)" /><use href="#m1" transform="matrix(0.79 0 0 0.79 42.00 42.00) rotate(30.00 200 200)" /><use href="#m1" transform="matrix(0.79 0 0 0.79 42.00 42.00) rotate(60.00 200 200)" /><use href="#m1" transform="matrix(0.79 0 0 0.79 42.00 42.00) rotate(90.00 200 200)" /><use href="#m1" transform="matrix(0.79 0 0 0.79 42.00 42.00) rotate(120.00 200 200)" /><use href="#m1" transform="matrix(0.79 0 0 0.79 42.00 42.00) rotate(150.00 200 200)" /><use href="#m1" transform="matrix(0.79 0 0 0.79 42.00 42.00) rotate(180.00 200 200)" /><use href="#m1" transform="matrix(0.79 0 0 0.79 42.00 42.00) rotate(210.00 200 200)" /><use href="#m1" transform="matrix(0.79 0 0 0.79 42.00 42.00) rotate(240.00 200 200)" /><use href="#m1" transform="matrix(0.79 0 0 0.79 42.00 42.00) rotate(270.00 200 200)" /><use href="#m1" transform="matrix(0.79 0 0 0.79 42.00 42.00) rotate(300.00 200 200)" /><use href="#m1" transform="matrix(0.79 0 0 0.79 42.00 42.00) rotate(330.00 200 200)" />
        <use href="#l1" transform="matrix(0.49 0 0 0.49 102.00 102.00) rotate(0.00 200 200)" /><use href="#l1" transform="matrix(0.49 0 0 0.49 102.00 102.00) rotate(30.00 200 200)" /><use href="#l1" transform="matrix(0.49 0 0 0.49 102.00 102.00) rotate(60.00 200 200)" /><use href="#l1" transform="matrix(0.49 0 0 0.49 102.00 102.00) rotate(90.00 200 200)" /><use href="#l1" transform="matrix(0.49 0 0 0.49 102.00 102.00) rotate(120.00 200 200)" /><use href="#l1" transform="matrix(0.49 0 0 0.49 102.00 102.00) rotate(150.00 200 200)" /><use href="#l1" transform="matrix(0.49 0 0 0.49 102.00 102.00) rotate(180.00 200 200)" /><use href="#l1" transform="matrix(0.49 0 0 0.49 102.00 102.00) rotate(210.00 200 200)" /><use href="#l1" transform="matrix(0.49 0 0 0.49 102.00 102.00) rotate(240.00 200 200)" /><use href="#l1" transform="matrix(0.49 0 0 0.49 102.00 102.00) rotate(270.00 200 200)" /><use href="#l1" transform="matrix(0.49 0 0 0.49 102.00 102.00) rotate(300.00 200 200)" /><use href="#l1" transform="matrix(0.49 0 0 0.49 102.00 102.00) rotate(330.00 200 200)" />
      </svg>