<svg xmlns="http://www.w3.org/2000/svg" viewBox="0 0 400 400" style="">
        <defs><path d="M142.00,200  a57.99999999999999,57.99999999999999 0 0,0 116.00,0 a57.99999999999999,57.99999999999999 0 1,0 -116.00,0 m8.70,0  a49.300,49.300 0 0,0 98.60,0 a49.300,49.300 0 1,0 -98.60,0" style="stroke:#3D1414;stroke-width:1;fill:#FC4811;fill-rule:evenodd" id="c1" /><path d="M200,110.00 l90,90 l-90,90 l-90,-90 l90,-90 m0,11.70 l78.3,78.3 l-78.3,78.3 l-78.3,-78.3 l78.3,-78.3" style="stroke:#141C3D;stroke-width:1;fill:#875A87;fill-rule:evenodd" id="r1" /><path d="M200,0.00 L373.21,300.00 L26.79,300.00 L200,0.00 M200,26.00 L350.69,287.00 L49.31,287.00 L200,26.00" style="stroke:#1E1E33;stroke-width:1;fill:#FCA311;fill-rule:evenodd" id="t1" /><path d="M130.00,130.00 h140.00 v140.00 h-140.00 v-140.00 m7.00,7.00 h126.00 v126.00 h-126.00 v-126.00" style="stroke:#14173D;stroke-width:1;fill:#2E23DF;fill-rule:evenodd" id="q1" /><g id="d1"><path d="M184.20,55.43 l9.48,-9.48 h12.64 l9.48,9.48 h-31.6 l15.8,15.8 l15.8,-15.8" style="stroke:#000;stroke-width:1;fill:#11c3fc;" fill-rule="evenodd" /><path d="M184.20,55.43 l9.48,-9.48 h12.64 l9.48,9.48 h-31.6 l15.8,15.8 l15.8,-15.8" style="stroke:#000;stroke-width:1;fill:#11c3fc;" fill-rule="evenodd" /></g><g id="l1"><path d="M200,38.50  a18.70,18.70 0 0,1 0,30.60 a18.70,18.70 0 0,1 0,-30.60" style="stroke:#000;stroke-width:1;fill:#fc11e1;fill-rule:evenodd" transform="rotate(-40 200 72.50)" />
        <path d="M200,38.50  a18.70,18.70 0 0,1 0,30.60 a18.70,18.70 0 0,1 0,-30.60" style="stroke:#000;stroke-width:1;fill:#fc11e1;fill-rule:evenodd" transform="rotate(-20 200 72.50)" />
        <path d="M200,38.50  a18.70,18.70 0 0,1 0,30.60 a18.70,18.70 0 0,1 0,-30.60" style="stroke:#000;stroke-width:1;fill:#fc11e1;fill-rule:evenodd" transform="rotate(40 200 72.50)" />
        <path d="M200,38.50  a18.70,18.70 0 0,1 0,30.60 a18.70,18.70 0 0,1 0,-30.60" style="stroke:#000;stroke-width:1;fill:#fc11e1;fill-rule:evenodd" transform="rotate(20 200 72.50)" />
        <path d="M200,38.50  a18.70,18.70 0 0,1 0,30.60 a18.70,18.70 0 0,1 0,-30.60" style="stroke:#000;stroke-width:1;fill:#fc11e1;fill-rule:evenodd" /></g></defs>
        <rect x="0" y="0" width="400" height="400" rx="0" ry="0" style="fill:#aebfe5" />
        
        <use href="#t1" transform="matrix(0.79 0 0 0.79 42.00 42.00) rotate(0.00 200 200)"/><use href="#t1" transform="matrix(0.79 0 0 0.79 42.00 42.00) rotate(30.00 200 200)"/><use href="#t1" transform="matrix(0.79 0 0 0.79 42.00 42.00) rotate(60.00 200 200)"/><use href="#t1" transform="matrix(0.79 0 0 0.79 42.00 42.00) rotate(90.00 200 200)"/>
        <use href="#c1" transform="matrix(0.62 0 0 0.62 76.00 76.00) rotate(0.00 200 200)" /><use href="#r1" transform="matrix(0.57 0 0 0.57 86.00 86.00) rotate(0.00 200 200)" /><use href="#r1" transform="matrix(0.57 0 0 0.57 86.00 86.00) rotate(32.73 200 200)" /><use href="#r1" transform="matrix(0.57 0 0 0.57 86.00 86.00) rotate(65.45 200 200)" /><use href="#r1" transform="matrix(0.57 0 0 0.57 86.00 86.00) rotate(98.18 200 200)" /><use href="#r1" transform="matrix(0.57 0 0 0.57 86.00 86.00) rotate(130.91 200 200)" /><use href="#r1" transform="matrix(0.57 0 0 0.57 86.00 86.00) rotate(163.64 200 200)" /><use href="#r1" transform="matrix(0.57 0 0 0.57 86.00 86.00) rotate(196.36 200 200)" /><use href="#r1" transform="matrix(0.57 0 0 0.57 86.00 86.00) rotate(229.09 200 200)" /><use href="#r1" transform="matrix(0.57 0 0 0.57 86.00 86.00) rotate(261.82 200 200)" /><use href="#r1" transform="matrix(0.57 0 0 0.57 86.00 86.00) rotate(294.55 200 200)" /><use href="#r1" transform="matrix(0.57 0 0 0.57 86.00 86.00) rotate(327.27 200 200)" /><use href="#c1" transform="matrix(0.53 0 0 0.53 94.00 94.00) rotate(0.00 200 200)" />
        <use href="#q1" transform="matrix(0.49 0 0 0.49 102.00 102.00) rotate(0.00 200 200)" /><use href="#q1" transform="matrix(0.49 0 0 0.49 102.00 102.00) rotate(24.00 200 200)" /><use href="#q1" transform="matrix(0.49 0 0 0.49 102.00 102.00) rotate(48.00 200 200)" /><use href="#q1" transform="matrix(0.49 0 0 0.49 102.00 102.00) rotate(72.00 200 200)" /><use href="#q1" transform="matrix(0.49 0 0 0.49 102.00 102.00) rotate(96.00 200 200)" /><use href="#q1" transform="matrix(0.49 0 0 0.49 102.00 102.00) rotate(120.00 200 200)" /><use href="#q1" transform="matrix(0.49 0 0 0.49 102.00 102.00) rotate(144.00 200 200)" /><use href="#q1" transform="matrix(0.49 0 0 0.49 102.00 102.00) rotate(168.00 200 200)" /><use href="#q1" transform="matrix(0.49 0 0 0.49 102.00 102.00) rotate(192.00 200 200)" /><use href="#q1" transform="matrix(0.49 0 0 0.49 102.00 102.00) rotate(216.00 200 200)" /><use href="#q1" transform="matrix(0.49 0 0 0.49 102.00 102.00) rotate(240.00 200 200)" /><use href="#q1" transform="matrix(0.49 0 0 0.49 102.00 102.00) rotate(264.00 200 200)" /><use href="#q1" transform="matrix(0.49 0 0 0.49 102.00 102.00) rotate(288.00 200 200)" /><use href="#q1" transform="matrix(0.49 0 0 0.49 102.00 102.00) rotate(312.00 200 200)" /><use href="#q1" transform="matrix(0.49 0 0 0.49 102.00 102.00) rotate(336.00 200 200)" /><use href="#r1" transform="matrix(0.45 0 0 0.45 110.00 110.00) rotate(0.00 200 200)" /><use href="#r1" transform="matrix(0.45 0 0 0.45 110.00 110.00) rotate(27.69 200 200)" /><use href="#r1" transform="matrix(0.45 0 0 0.45 110.00 110.00) rotate(55.38 200 200)" /><use href="#r1" transform="matrix(0.45 0 0 0.45 110.00 110.00) rotate(83.08 200 200)" /><use href="#r1" transform="matrix(0.45 0 0 0.45 110.00 110.00) rotate(110.77 200 200)" /><use href="#r1" transform="matrix(0.45 0 0 0.45 110.00 110.00) rotate(138.46 200 200)" /><use href="#r1" transform="matrix(0.45 0 0 0.45 110.00 110.00) rotate(166.15 200 200)" /><use href="#r1" transform="matrix(0.45 0 0 0.45 110.00 110.00) rotate(193.85 200 200)" /><use href="#r1" transform="matrix(0.45 0 0 0.45 110.00 110.00) rotate(221.54 200 200)" /><use href="#r1" transform="matrix(0.45 0 0 0.45 110.00 110.00) rotate(249.23 200 200)" /><use href="#r1" transform="matrix(0.45 0 0 0.45 110.00 110.00) rotate(276.92 200 200)" /><use href="#r1" transform="matrix(0.45 0 0 0.45 110.00 110.00) rotate(304.62 200 200)" /><use href="#r1" transform="matrix(0.45 0 0 0.45 110.00 110.00) rotate(332.31 200 200)" />
        <use href="#q1" transform="matrix(0.35 0 0 0.35 130.00 130.00) rotate(0.00 200 200)" /><use href="#q1" transform="matrix(0.35 0 0 0.35 130.00 130.00) rotate(27.69 200 200)" /><use href="#q1" transform="matrix(0.35 0 0 0.35 130.00 130.00) rotate(55.38 200 200)" /><use href="#q1" transform="matrix(0.35 0 0 0.35 130.00 130.00) rotate(83.08 200 200)" /><use href="#q1" transform="matrix(0.35 0 0 0.35 130.00 130.00) rotate(110.77 200 200)" /><use href="#q1" transform="matrix(0.35 0 0 0.35 130.00 130.00) rotate(138.46 200 200)" /><use href="#q1" transform="matrix(0.35 0 0 0.35 130.00 130.00) rotate(166.15 200 200)" /><use href="#q1" transform="matrix(0.35 0 0 0.35 130.00 130.00) rotate(193.85 200 200)" /><use href="#q1" transform="matrix(0.35 0 0 0.35 130.00 130.00) rotate(221.54 200 200)" /><use href="#q1" transform="matrix(0.35 0 0 0.35 130.00 130.00) rotate(249.23 200 200)" /><use href="#q1" transform="matrix(0.35 0 0 0.35 130.00 130.00) rotate(276.92 200 200)" /><use href="#q1" transform="matrix(0.35 0 0 0.35 130.00 130.00) rotate(304.62 200 200)" /><use href="#q1" transform="matrix(0.35 0 0 0.35 130.00 130.00) rotate(332.31 200 200)" />
        <use href="#c1" transform="matrix(0.29 0 0 0.29 142.00 142.00) rotate(0.00 200 200)" /><use href="#d1" transform="matrix(0.79 0 0 0.79 42.00 42.00) rotate(0.00 200 200)" /><use href="#d1" transform="matrix(0.79 0 0 0.79 42.00 42.00) rotate(51.43 200 200)" /><use href="#d1" transform="matrix(0.79 0 0 0.79 42.00 42.00) rotate(102.86 200 200)" /><use href="#d1" transform="matrix(0.79 0 0 0.79 42.00 42.00) rotate(154.29 200 200)" /><use href="#d1" transform="matrix(0.79 0 0 0.79 42.00 42.00) rotate(205.71 200 200)" /><use href="#d1" transform="matrix(0.79 0 0 0.79 42.00 42.00) rotate(257.14 200 200)" /><use href="#d1" transform="matrix(0.79 0 0 0.79 42.00 42.00) rotate(308.57 200 200)" />
        <use href="#l1" transform="matrix(0.62 0 0 0.62 76.00 76.00) rotate(0.00 200 200)" /><use href="#l1" transform="matrix(0.62 0 0 0.62 76.00 76.00) rotate(24.00 200 200)" /><use href="#l1" transform="matrix(0.62 0 0 0.62 76.00 76.00) rotate(48.00 200 200)" /><use href="#l1" transform="matrix(0.62 0 0 0.62 76.00 76.00) rotate(72.00 200 200)" /><use href="#l1" transform="matrix(0.62 0 0 0.62 76.00 76.00) rotate(96.00 200 200)" /><use href="#l1" transform="matrix(0.62 0 0 0.62 76.00 76.00) rotate(120.00 200 200)" /><use href="#l1" transform="matrix(0.62 0 0 0.62 76.00 76.00) rotate(144.00 200 200)" /><use href="#l1" transform="matrix(0.62 0 0 0.62 76.00 76.00) rotate(168.00 200 200)" /><use href="#l1" transform="matrix(0.62 0 0 0.62 76.00 76.00) rotate(192.00 200 200)" /><use href="#l1" transform="matrix(0.62 0 0 0.62 76.00 76.00) rotate(216.00 200 200)" /><use href="#l1" transform="matrix(0.62 0 0 0.62 76.00 76.00) rotate(240.00 200 200)" /><use href="#l1" transform="matrix(0.62 0 0 0.62 76.00 76.00) rotate(264.00 200 200)" /><use href="#l1" transform="matrix(0.62 0 0 0.62 76.00 76.00) rotate(288.00 200 200)" /><use href="#l1" transform="matrix(0.62 0 0 0.62 76.00 76.00) rotate(312.00 200 200)" /><use href="#l1" transform="matrix(0.62 0 0 0.62 76.00 76.00) rotate(336.00 200 200)" /><use href="#d1" transform="matrix(0.49 0 0 0.49 102.00 102.00) rotate(0.00 200 200)" /><use href="#d1" transform="matrix(0.49 0 0 0.49 102.00 102.00) rotate(32.73 200 200)" /><use href="#d1" transform="matrix(0.49 0 0 0.49 102.00 102.00) rotate(65.45 200 200)" /><use href="#d1" transform="matrix(0.49 0 0 0.49 102.00 102.00) rotate(98.18 200 200)" /><use href="#d1" transform="matrix(0.49 0 0 0.49 102.00 102.00) rotate(130.91 200 200)" /><use href="#d1" transform="matrix(0.49 0 0 0.49 102.00 102.00) rotate(163.64 200 200)" /><use href="#d1" transform="matrix(0.49 0 0 0.49 102.00 102.00) rotate(196.36 200 200)" /><use href="#d1" transform="matrix(0.49 0 0 0.49 102.00 102.00) rotate(229.09 200 200)" /><use href="#d1" transform="matrix(0.49 0 0 0.49 102.00 102.00) rotate(261.82 200 200)" /><use href="#d1" transform="matrix(0.49 0 0 0.49 102.00 102.00) rotate(294.55 200 200)" /><use href="#d1" transform="matrix(0.49 0 0 0.49 102.00 102.00) rotate(327.27 200 200)" />
      </svg>