<svg xmlns="http://www.w3.org/2000/svg" viewBox="0 0 400 400" style="">
        <defs><path d="M142.00,200  a57.99999999999999,57.99999999999999 0 0,0 116.00,0 a57.99999999999999,57.99999999999999 0 1,0 -116.00,0 m8.70,0  a49.300,49.300 0 0,0 98.60,0 a49.300,49.300 0 1,0 -98.60,0" style="stroke:#3D1414;stroke-width:1;fill:#FC4811;fill-rule:evenodd" id="c1" /><path d="M200,86.00 l113.99999999999999,113.99999999999999 l-113.99999999999999,113.99999999999999 l-113.99999999999999,-113.99999999999999 l113.99999999999999,-113.99999999999999 m0,14.82 l99.17999999999999,99.17999999999999 l-99.17999999999999,99.17999999999999 l-99.17999999999999,-99.17999999999999 l99.17999999999999,-99.17999999999999" style="stroke:#141C3D;stroke-width:1;fill:#875A87;fill-rule:evenodd" id="r1" /><path d="M200,0.00 L373.21,300.00 L26.79,300.00 L200,0.00 M200,26.00 L350.69,287.00 L49.31,287.00 L200,26.00" style="stroke:#1E1E33;stroke-width:1;fill:#FCA311;fill-rule:evenodd" id="t1" /><path d="M30.00,30.00 h340.00 v340.00 h-340.00 v-340.00 m17.00,17.00 h306.00 v306.00 h-306.00 v-306.00" style="stroke:#14173D;stroke-width:1;fill:#1111FC;fill-rule:evenodd" id="q1" /><g id="d1"><path d="M184.20,55.43 l9.48,-9.48 h12.64 l9.48,9.48 h-31.6 l15.8,15.8 l15.8,-15.8" style="stroke:#000;stroke-width:1;fill:#11c3fc;" fill-rule="evenodd" /><path d="M184.20,55.43 l9.48,-9.48 h12.64 l9.48,9.48 h-31.6 l15.8,15.8 l15.8,-15.8" style="stroke:#000;stroke-width:1;fill:#11c3fc;" fill-rule="evenodd" /></g></defs>
        <rect x="0" y="0" width="400" height="400" rx="0" ry="0" style="fill:#070c17" />
        <use href="#q1" transform="matrix(0.85 0 0 0.85 30.00 30.00) rotate(0.00 200 200)" />
        <use href="#t1" transform="matrix(0.79 0 0 0.79 42.00 42.00) rotate(0.00 200 200)"/>
        <use href="#r1" transform="matrix(0.57 0 0 0.57 86.00 86.00) rotate(0.00 200 200)" /><use href="#c1" transform="matrix(0.53 0 0 0.53 94.00 94.00) rotate(0.00 200 200)" />
        
        <use href="#c1" transform="matrix(0.35 0 0 0.35 130.00 130.00) rotate(0.00 200 200)" /><use href="#c1" transform="matrix(0.32 0 0 0.32 136.00 136.00) rotate(0.00 200 200)" />
        <use href="#c1" transform="matrix(0.29 0 0 0.29 142.00 142.00) rotate(0.00 200 200)" />
        <use href="#d1" transform="matrix(0.49 0 0 0.49 102.00 102.00) rotate(0.00 200 200)" /><use href="#d1" transform="matrix(0.49 0 0 0.49 102.00 102.00) rotate(180.00 200 200)" />
      </svg>