<svg xmlns="http://www.w3.org/2000/svg" viewBox="0 0 400 400" style="">
        <defs><path d="M136.00,200  a64,64 0 0,0 128.00,0 a64,64 0 1,0 -128.00,0 m9.60,0  a54.400,54.400 0 0,0 108.80,0 a54.400,54.400 0 1,0 -108.80,0" style="stroke:#3D1414;stroke-width:1;fill:#FC3611;fill-rule:evenodd" id="c1" /><path d="M200,16.00 l184,184 l-184,184 l-184,-184 l184,-184 m0,23.92 l160.08,160.08 l-160.08,160.08 l-160.08,-160.08 l160.08,-160.08" style="stroke:#141C3D;stroke-width:1;fill:#875A87;fill-rule:evenodd" id="r1" /><path d="M200,0.00 L373.21,300.00 L26.79,300.00 L200,0.00 M200,26.00 L350.69,287.00 L49.31,287.00 L200,26.00" style="stroke:#1E1E33;stroke-width:1;fill:#FC7F11;fill-rule:evenodd" id="t1" /><path d="M142.00,142.00 h116.00 v116.00 h-116.00 v-116.00 m5.80,5.80 h104.40 v104.40 h-104.40 v-104.40" style="stroke:#14173D;stroke-width:1;fill:#4C36C1;fill-rule:evenodd" id="q1" /><path id="m1" d="M211.33,34.25 a17,17 0 1,0 0,25.50 a12.75,12.75 0 0,1 0,-25.50" style="stroke:#000;stroke-width:1;fill:#fcfa11;fill-rule:evenodd" /><g id="l1"><path d="M200,25.20  a20.24,20.24 0 0,1 0,33.12 a20.24,20.24 0 0,1 0,-33.12" style="stroke:#000;stroke-width:1;fill:#fc11e1;fill-rule:evenodd" transform="rotate(-40 200 62.00)" />
        <path d="M200,25.20  a20.24,20.24 0 0,1 0,33.12 a20.24,20.24 0 0,1 0,-33.12" style="stroke:#000;stroke-width:1;fill:#fc11e1;fill-rule:evenodd" transform="rotate(-20 200 62.00)" />
        <path d="M200,25.20  a20.24,20.24 0 0,1 0,33.12 a20.24,20.24 0 0,1 0,-33.12" style="stroke:#000;stroke-width:1;fill:#fc11e1;fill-rule:evenodd" transform="rotate(40 200 62.00)" />
        <path d="M200,25.20  a20.24,20.24 0 0,1 0,33.12 a20.24,20.24 0 0,1 0,-33.12" style="stroke:#000;stroke-width:1;fill:#fc11e1;fill-rule:evenodd" transform="rotate(20 200 62.00)" />
        <path d="M200,25.20  a20.24,20.24 0 0,1 0,33.12 a20.24,20.24 0 0,1 0,-33.12" style="stroke:#000;stroke-width:1;fill:#fc11e1;fill-rule:evenodd" /></g></defs>
        <rect x="0" y="0" width="400" height="400" rx="0" ry="0" style="fill:#ECECEC" />
        <use href="#c1" transform="matrix(1.00 0 0 1.00 0.00 0.00) rotate(0.00 200 200)" /><use href="#r1" transform="matrix(0.92 0 0 0.92 16.00 16.00) rotate(0.00 200 200)" />
        <use href="#c1" transform="matrix(0.67 0 0 0.67 66.00 66.00) rotate(0.00 200 200)" />
        <use href="#t1" transform="matrix(0.57 0 0 0.57 86.00 86.00) rotate(0.00 200 200)"/>
        
        <use href="#c1" transform="matrix(0.32 0 0 0.32 136.00 136.00) rotate(0.00 200 200)" />
        <use href="#q1" transform="matrix(0.29 0 0 0.29 142.00 142.00) rotate(0.00 200 200)" /><use href="#q1" transform="matrix(0.29 0 0 0.29 142.00 142.00) rotate(72.00 200 200)" /><use href="#q1" transform="matrix(0.29 0 0 0.29 142.00 142.00) rotate(144.00 200 200)" /><use href="#q1" transform="matrix(0.29 0 0 0.29 142.00 142.00) rotate(216.00 200 200)" /><use href="#q1" transform="matrix(0.29 0 0 0.29 142.00 142.00) rotate(288.00 200 200)" /><use href="#l1" transform="matrix(0.79 0 0 0.79 42.00 42.00) rotate(0.00 200 200)" />
        <use href="#m1" transform="matrix(0.62 0 0 0.62 76.00 76.00) rotate(0.00 200 200)" /><use href="#m1" transform="matrix(0.62 0 0 0.62 76.00 76.00) rotate(32.73 200 200)" /><use href="#m1" transform="matrix(0.62 0 0 0.62 76.00 76.00) rotate(65.45 200 200)" /><use href="#m1" transform="matrix(0.62 0 0 0.62 76.00 76.00) rotate(98.18 200 200)" /><use href="#m1" transform="matrix(0.62 0 0 0.62 76.00 76.00) rotate(130.91 200 200)" /><use href="#m1" transform="matrix(0.62 0 0 0.62 76.00 76.00) rotate(163.64 200 200)" /><use href="#m1" transform="matrix(0.62 0 0 0.62 76.00 76.00) rotate(196.36 200 200)" /><use href="#m1" transform="matrix(0.62 0 0 0.62 76.00 76.00) rotate(229.09 200 200)" /><use href="#m1" transform="matrix(0.62 0 0 0.62 76.00 76.00) rotate(261.82 200 200)" /><use href="#m1" transform="matrix(0.62 0 0 0.62 76.00 76.00) rotate(294.55 200 200)" /><use href="#m1" transform="matrix(0.62 0 0 0.62 76.00 76.00) rotate(327.27 200 200)" />
      </svg>