<svg xmlns="http://www.w3.org/2000/svg" viewBox="0 0 400 400"><defs><linearGradient id="gr1" x1="0%" y1="0%" x2="0%" y2="100%" spreadMethod="pad"><stop offset="70%" stop-color="#25C5FF" stop-opacity="1"></stop><stop offset="100%" stop-color="#083963" stop-opacity="1"></stop></linearGradient><radialGradient id="gr4" fx="50%" fy="50%" r="50%" spreadMethod="reflect"><stop offset="70%" stop-color="#0acf00" stop-opacity="1"></stop><stop offset="100%" stop-color="#006600" stop-opacity="1"></stop></radialGradient><radialGradient id="gr5" fx="50%" fy="50%" r="10%" spreadMethod="reflect"><stop offset="70%" stop-color="#fd0006" stop-opacity="1"></stop><stop offset="100%" stop-color="#CC0000" stop-opacity="1"></stop></radialGradient><radialGradient id="gr6" fx="50%" fy="50%" r="50%" spreadMethod="reflect"><stop offset="70%" stop-color="#Ffab00" stop-opacity="1"></stop><stop offset="100%" stop-color="#dd8800" stop-opacity="1"></stop></radialGradient><radialGradient id="gr7" fx="50%" fy="50%" r="50%" spreadMethod="reflect"><stop offset="70%" stop-color="#316CFF" stop-opacity="1"></stop><stop offset="100%" stop-color="#060699" stop-opacity="1"></stop></radialGradient><!----><linearGradient id="gr9" x1="0%" y1="0%" x2="0%" y2="100%" spreadMethod="reflect"><stop offset="10%" stop-color="#FFF824" stop-opacity="1"></stop><stop offset="100%" stop-color="#FFC71C" stop-opacity="1"></stop></linearGradient><!----><linearGradient id="gr11" x1="50%" y1="0%" x2="50%" y2="100%"><stop offset="25%" style="stop-color: rgb(255, 255, 255); stop-opacity: 1;"></stop><stop offset="29%" style="stop-color: rgb(255, 253, 254); stop-opacity: 1;"></stop><stop offset="100%" style="stop-color: rgb(255, 171, 237); stop-opacity: 1;"></stop></linearGradient><path d="M2.00,200  a198.000,198.000 0 0,0 396.00,0 a198.000,198.000 0 1,0 -396.00,0 m29.70,0  a168.300,168.300 0 0,0 336.60,0 a168.300,168.300 0 1,0 -336.60,0" id="c1" style="stroke: rgb(0, 0, 0); stroke-width: 1; fill: #FFFFFF; fill-rule: evenodd;"></path><path d="M200,1 l199,199 l-199,199 l-199,-199 l199,-199 m0,25.87 l173.13,173.13 l-173.13,173.13 l-173.13,-173.13 l173.13,-173.13" id="r1" style="stroke: rgb(0, 0, 0); stroke-width: 1; fill: #FFFFFF; fill-rule: evenodd;"></path><path d="M200,1.00  L372.34,299.50 L27.66,299.50 L200,1 M200,26.870000000000005 L349.93,286.56 L50.07,286.56 L200,26.87" id="t1" style="stroke: rgb(0, 0, 0); stroke-width: 1; fill: #FFFFFF; fill-rule: evenodd;"></path><path d="M1,1 h398 v398 h-398 v-398 m19.90,19.90 h358.2 v358.2 h-358.2 v-358.2" id="q1" style="stroke: rgb(0, 0, 0); stroke-width: 1; fill: #FFFFFF; fill-rule: evenodd;"></path><!----><!----><g def="" id="m1"><g transform="rotate(0 200 200)"><path d="M213.26666666666665,5.975 a19.9,19.9 0 1,0 0,29.849999999999998 a14.924999999999999,14.924999999999999 0 0,1 0,-29.849999999999998" style="stroke: rgb(0, 0, 0); stroke-width: 1; fill: #FFFFFF; fill-rule: evenodd;"></path></g></g><!----></defs><use href="#c1" transform="matrix(0.73 0 0 0.73 54.00 54.00)"></use><g><use href="#r1" transform="matrix(0.67 0 0 0.67 66.00 66.00) rotate(0.00 200 200)"></use><use href="#r1" transform="matrix(0.67 0 0 0.67 66.00 66.00) rotate(40.00 200 200)"></use><use href="#r1" transform="matrix(0.67 0 0 0.67 66.00 66.00) rotate(80.00 200 200)"></use><use href="#r1" transform="matrix(0.67 0 0 0.67 66.00 66.00) rotate(120.00 200 200)"></use><use href="#r1" transform="matrix(0.67 0 0 0.67 66.00 66.00) rotate(160.00 200 200)"></use><use href="#r1" transform="matrix(0.67 0 0 0.67 66.00 66.00) rotate(200.00 200 200)"></use><use href="#r1" transform="matrix(0.67 0 0 0.67 66.00 66.00) rotate(240.00 200 200)"></use><use href="#r1" transform="matrix(0.67 0 0 0.67 66.00 66.00) rotate(280.00 200 200)"></use><use href="#r1" transform="matrix(0.67 0 0 0.67 66.00 66.00) rotate(320.00 200 200)"></use></g><g><use href="#q1" transform="matrix(0.57 0 0 0.57 86.00 86.00)  rotate(0.00 200 200)"></use><use href="#q1" transform="matrix(0.57 0 0 0.57 86.00 86.00)  rotate(72.00 200 200)"></use><use href="#q1" transform="matrix(0.57 0 0 0.57 86.00 86.00)  rotate(144.00 200 200)"></use><use href="#q1" transform="matrix(0.57 0 0 0.57 86.00 86.00)  rotate(216.00 200 200)"></use><use href="#q1" transform="matrix(0.57 0 0 0.57 86.00 86.00)  rotate(288.00 200 200)"></use></g><g><use href="#r1" transform="matrix(0.53 0 0 0.53 94.00 94.00) rotate(0.00 200 200)"></use></g><g><use href="#r1" transform="matrix(0.49 0 0 0.49 102.00 102.00) rotate(0.00 200 200)"></use></g><use href="#c1" transform="matrix(0.45 0 0 0.45 110.00 110.00)"></use><g transform="rotate(0 200 200)"><use href="#t1" transform="matrix(0.38 0 0 0.38 124.00 124.00) rotate(0.00 200 200)"></use><use href="#t1" transform="matrix(0.38 0 0 0.38 124.00 124.00) rotate(72.00 200 200)"></use><use href="#t1" transform="matrix(0.38 0 0 0.38 124.00 124.00) rotate(144.00 200 200)"></use><use href="#t1" transform="matrix(0.38 0 0 0.38 124.00 124.00) rotate(216.00 200 200)"></use><use href="#t1" transform="matrix(0.38 0 0 0.38 124.00 124.00) rotate(288.00 200 200)"></use></g><g transform="rotate(0 200 200)"><use href="#t1" transform="matrix(0.35 0 0 0.35 130.00 130.00) rotate(0.00 200 200)"></use><use href="#t1" transform="matrix(0.35 0 0 0.35 130.00 130.00) rotate(40.00 200 200)"></use><use href="#t1" transform="matrix(0.35 0 0 0.35 130.00 130.00) rotate(80.00 200 200)"></use></g><use href="#c1" transform="matrix(0.29 0 0 0.29 142.00 142.00)"></use><g><g transform="rotate(0 200 200)"><path d="M200,82.2  a13.640000000000002,13.640000000000002 0 0,1 0,22.32 a13.640000000000002,13.640000000000002 0 0,1 0,-22.32" transform="rotate(-40 200 107)" style="stroke: rgb(0, 0, 0); stroke-width: 1; fill: #FFFFFF; fill-rule: evenodd;"></path><path d="M200,82.2  a13.640000000000002,13.640000000000002 0 0,1 0,22.32 a13.640000000000002,13.640000000000002 0 0,1 0,-22.32" transform="rotate(-20 200 107)" style="stroke: rgb(0, 0, 0); stroke-width: 1; fill: #FFFFFF; fill-rule: evenodd;"></path><path d="M200,82.2  a13.640000000000002,13.640000000000002 0 0,1 0,22.32 a13.640000000000002,13.640000000000002 0 0,1 0,-22.32" transform="rotate(40 200 107)" style="stroke: rgb(0, 0, 0); stroke-width: 1; fill: #FFFFFF; fill-rule: evenodd;"></path><path d="M200,82.2  a13.640000000000002,13.640000000000002 0 0,1 0,22.32 a13.640000000000002,13.640000000000002 0 0,1 0,-22.32" transform="rotate(20 200 107)" style="stroke: rgb(0, 0, 0); stroke-width: 1; fill: #FFFFFF; fill-rule: evenodd;"></path><path d="M200,82.2  a13.640000000000002,13.640000000000002 0 0,1 0,22.32 a13.640000000000002,13.640000000000002 0 0,1 0,-22.32" style="stroke: rgb(0, 0, 0); stroke-width: 1; fill: #FFFFFF; fill-rule: evenodd;"></path></g><g transform="rotate(32.72727272727273 200 200)"><path d="M200,82.2  a13.640000000000002,13.640000000000002 0 0,1 0,22.32 a13.640000000000002,13.640000000000002 0 0,1 0,-22.32" transform="rotate(-40 200 107)" style="stroke: rgb(0, 0, 0); stroke-width: 1; fill: #FFFFFF; fill-rule: evenodd;"></path><path d="M200,82.2  a13.640000000000002,13.640000000000002 0 0,1 0,22.32 a13.640000000000002,13.640000000000002 0 0,1 0,-22.32" transform="rotate(-20 200 107)" style="stroke: rgb(0, 0, 0); stroke-width: 1; fill: #FFFFFF; fill-rule: evenodd;"></path><path d="M200,82.2  a13.640000000000002,13.640000000000002 0 0,1 0,22.32 a13.640000000000002,13.640000000000002 0 0,1 0,-22.32" transform="rotate(40 200 107)" style="stroke: rgb(0, 0, 0); stroke-width: 1; fill: #FFFFFF; fill-rule: evenodd;"></path><path d="M200,82.2  a13.640000000000002,13.640000000000002 0 0,1 0,22.32 a13.640000000000002,13.640000000000002 0 0,1 0,-22.32" transform="rotate(20 200 107)" style="stroke: rgb(0, 0, 0); stroke-width: 1; fill: #FFFFFF; fill-rule: evenodd;"></path><path d="M200,82.2  a13.640000000000002,13.640000000000002 0 0,1 0,22.32 a13.640000000000002,13.640000000000002 0 0,1 0,-22.32" style="stroke: rgb(0, 0, 0); stroke-width: 1; fill: #FFFFFF; fill-rule: evenodd;"></path></g><g transform="rotate(65.45454545454545 200 200)"><path d="M200,82.2  a13.640000000000002,13.640000000000002 0 0,1 0,22.32 a13.640000000000002,13.640000000000002 0 0,1 0,-22.32" transform="rotate(-40 200 107)" style="stroke: rgb(0, 0, 0); stroke-width: 1; fill: #FFFFFF; fill-rule: evenodd;"></path><path d="M200,82.2  a13.640000000000002,13.640000000000002 0 0,1 0,22.32 a13.640000000000002,13.640000000000002 0 0,1 0,-22.32" transform="rotate(-20 200 107)" style="stroke: rgb(0, 0, 0); stroke-width: 1; fill: #FFFFFF; fill-rule: evenodd;"></path><path d="M200,82.2  a13.640000000000002,13.640000000000002 0 0,1 0,22.32 a13.640000000000002,13.640000000000002 0 0,1 0,-22.32" transform="rotate(40 200 107)" style="stroke: rgb(0, 0, 0); stroke-width: 1; fill: #FFFFFF; fill-rule: evenodd;"></path><path d="M200,82.2  a13.640000000000002,13.640000000000002 0 0,1 0,22.32 a13.640000000000002,13.640000000000002 0 0,1 0,-22.32" transform="rotate(20 200 107)" style="stroke: rgb(0, 0, 0); stroke-width: 1; fill: #FFFFFF; fill-rule: evenodd;"></path><path d="M200,82.2  a13.640000000000002,13.640000000000002 0 0,1 0,22.32 a13.640000000000002,13.640000000000002 0 0,1 0,-22.32" style="stroke: rgb(0, 0, 0); stroke-width: 1; fill: #FFFFFF; fill-rule: evenodd;"></path></g><g transform="rotate(98.18181818181819 200 200)"><path d="M200,82.2  a13.640000000000002,13.640000000000002 0 0,1 0,22.32 a13.640000000000002,13.640000000000002 0 0,1 0,-22.32" transform="rotate(-40 200 107)" style="stroke: rgb(0, 0, 0); stroke-width: 1; fill: #FFFFFF; fill-rule: evenodd;"></path><path d="M200,82.2  a13.640000000000002,13.640000000000002 0 0,1 0,22.32 a13.640000000000002,13.640000000000002 0 0,1 0,-22.32" transform="rotate(-20 200 107)" style="stroke: rgb(0, 0, 0); stroke-width: 1; fill: #FFFFFF; fill-rule: evenodd;"></path><path d="M200,82.2  a13.640000000000002,13.640000000000002 0 0,1 0,22.32 a13.640000000000002,13.640000000000002 0 0,1 0,-22.32" transform="rotate(40 200 107)" style="stroke: rgb(0, 0, 0); stroke-width: 1; fill: #FFFFFF; fill-rule: evenodd;"></path><path d="M200,82.2  a13.640000000000002,13.640000000000002 0 0,1 0,22.32 a13.640000000000002,13.640000000000002 0 0,1 0,-22.32" transform="rotate(20 200 107)" style="stroke: rgb(0, 0, 0); stroke-width: 1; fill: #FFFFFF; fill-rule: evenodd;"></path><path d="M200,82.2  a13.640000000000002,13.640000000000002 0 0,1 0,22.32 a13.640000000000002,13.640000000000002 0 0,1 0,-22.32" style="stroke: rgb(0, 0, 0); stroke-width: 1; fill: #FFFFFF; fill-rule: evenodd;"></path></g><g transform="rotate(130.9090909090909 200 200)"><path d="M200,82.2  a13.640000000000002,13.640000000000002 0 0,1 0,22.32 a13.640000000000002,13.640000000000002 0 0,1 0,-22.32" transform="rotate(-40 200 107)" style="stroke: rgb(0, 0, 0); stroke-width: 1; fill: #FFFFFF; fill-rule: evenodd;"></path><path d="M200,82.2  a13.640000000000002,13.640000000000002 0 0,1 0,22.32 a13.640000000000002,13.640000000000002 0 0,1 0,-22.32" transform="rotate(-20 200 107)" style="stroke: rgb(0, 0, 0); stroke-width: 1; fill: #FFFFFF; fill-rule: evenodd;"></path><path d="M200,82.2  a13.640000000000002,13.640000000000002 0 0,1 0,22.32 a13.640000000000002,13.640000000000002 0 0,1 0,-22.32" transform="rotate(40 200 107)" style="stroke: rgb(0, 0, 0); stroke-width: 1; fill: #FFFFFF; fill-rule: evenodd;"></path><path d="M200,82.2  a13.640000000000002,13.640000000000002 0 0,1 0,22.32 a13.640000000000002,13.640000000000002 0 0,1 0,-22.32" transform="rotate(20 200 107)" style="stroke: rgb(0, 0, 0); stroke-width: 1; fill: #FFFFFF; fill-rule: evenodd;"></path><path d="M200,82.2  a13.640000000000002,13.640000000000002 0 0,1 0,22.32 a13.640000000000002,13.640000000000002 0 0,1 0,-22.32" style="stroke: rgb(0, 0, 0); stroke-width: 1; fill: #FFFFFF; fill-rule: evenodd;"></path></g><g transform="rotate(163.63636363636363 200 200)"><path d="M200,82.2  a13.640000000000002,13.640000000000002 0 0,1 0,22.32 a13.640000000000002,13.640000000000002 0 0,1 0,-22.32" transform="rotate(-40 200 107)" style="stroke: rgb(0, 0, 0); stroke-width: 1; fill: #FFFFFF; fill-rule: evenodd;"></path><path d="M200,82.2  a13.640000000000002,13.640000000000002 0 0,1 0,22.32 a13.640000000000002,13.640000000000002 0 0,1 0,-22.32" transform="rotate(-20 200 107)" style="stroke: rgb(0, 0, 0); stroke-width: 1; fill: #FFFFFF; fill-rule: evenodd;"></path><path d="M200,82.2  a13.640000000000002,13.640000000000002 0 0,1 0,22.32 a13.640000000000002,13.640000000000002 0 0,1 0,-22.32" transform="rotate(40 200 107)" style="stroke: rgb(0, 0, 0); stroke-width: 1; fill: #FFFFFF; fill-rule: evenodd;"></path><path d="M200,82.2  a13.640000000000002,13.640000000000002 0 0,1 0,22.32 a13.640000000000002,13.640000000000002 0 0,1 0,-22.32" transform="rotate(20 200 107)" style="stroke: rgb(0, 0, 0); stroke-width: 1; fill: #FFFFFF; fill-rule: evenodd;"></path><path d="M200,82.2  a13.640000000000002,13.640000000000002 0 0,1 0,22.32 a13.640000000000002,13.640000000000002 0 0,1 0,-22.32" style="stroke: rgb(0, 0, 0); stroke-width: 1; fill: #FFFFFF; fill-rule: evenodd;"></path></g><g transform="rotate(196.36363636363637 200 200)"><path d="M200,82.2  a13.640000000000002,13.640000000000002 0 0,1 0,22.32 a13.640000000000002,13.640000000000002 0 0,1 0,-22.32" transform="rotate(-40 200 107)" style="stroke: rgb(0, 0, 0); stroke-width: 1; fill: #FFFFFF; fill-rule: evenodd;"></path><path d="M200,82.2  a13.640000000000002,13.640000000000002 0 0,1 0,22.32 a13.640000000000002,13.640000000000002 0 0,1 0,-22.32" transform="rotate(-20 200 107)" style="stroke: rgb(0, 0, 0); stroke-width: 1; fill: #FFFFFF; fill-rule: evenodd;"></path><path d="M200,82.2  a13.640000000000002,13.640000000000002 0 0,1 0,22.32 a13.640000000000002,13.640000000000002 0 0,1 0,-22.32" transform="rotate(40 200 107)" style="stroke: rgb(0, 0, 0); stroke-width: 1; fill: #FFFFFF; fill-rule: evenodd;"></path><path d="M200,82.2  a13.640000000000002,13.640000000000002 0 0,1 0,22.32 a13.640000000000002,13.640000000000002 0 0,1 0,-22.32" transform="rotate(20 200 107)" style="stroke: rgb(0, 0, 0); stroke-width: 1; fill: #FFFFFF; fill-rule: evenodd;"></path><path d="M200,82.2  a13.640000000000002,13.640000000000002 0 0,1 0,22.32 a13.640000000000002,13.640000000000002 0 0,1 0,-22.32" style="stroke: rgb(0, 0, 0); stroke-width: 1; fill: #FFFFFF; fill-rule: evenodd;"></path></g><g transform="rotate(229.0909090909091 200 200)"><path d="M200,82.2  a13.640000000000002,13.640000000000002 0 0,1 0,22.32 a13.640000000000002,13.640000000000002 0 0,1 0,-22.32" transform="rotate(-40 200 107)" style="stroke: rgb(0, 0, 0); stroke-width: 1; fill: #FFFFFF; fill-rule: evenodd;"></path><path d="M200,82.2  a13.640000000000002,13.640000000000002 0 0,1 0,22.32 a13.640000000000002,13.640000000000002 0 0,1 0,-22.32" transform="rotate(-20 200 107)" style="stroke: rgb(0, 0, 0); stroke-width: 1; fill: #FFFFFF; fill-rule: evenodd;"></path><path d="M200,82.2  a13.640000000000002,13.640000000000002 0 0,1 0,22.32 a13.640000000000002,13.640000000000002 0 0,1 0,-22.32" transform="rotate(40 200 107)" style="stroke: rgb(0, 0, 0); stroke-width: 1; fill: #FFFFFF; fill-rule: evenodd;"></path><path d="M200,82.2  a13.640000000000002,13.640000000000002 0 0,1 0,22.32 a13.640000000000002,13.640000000000002 0 0,1 0,-22.32" transform="rotate(20 200 107)" style="stroke: rgb(0, 0, 0); stroke-width: 1; fill: #FFFFFF; fill-rule: evenodd;"></path><path d="M200,82.2  a13.640000000000002,13.640000000000002 0 0,1 0,22.32 a13.640000000000002,13.640000000000002 0 0,1 0,-22.32" style="stroke: rgb(0, 0, 0); stroke-width: 1; fill: #FFFFFF; fill-rule: evenodd;"></path></g><g transform="rotate(261.8181818181818 200 200)"><path d="M200,82.2  a13.640000000000002,13.640000000000002 0 0,1 0,22.32 a13.640000000000002,13.640000000000002 0 0,1 0,-22.32" transform="rotate(-40 200 107)" style="stroke: rgb(0, 0, 0); stroke-width: 1; fill: #FFFFFF; fill-rule: evenodd;"></path><path d="M200,82.2  a13.640000000000002,13.640000000000002 0 0,1 0,22.32 a13.640000000000002,13.640000000000002 0 0,1 0,-22.32" transform="rotate(-20 200 107)" style="stroke: rgb(0, 0, 0); stroke-width: 1; fill: #FFFFFF; fill-rule: evenodd;"></path><path d="M200,82.2  a13.640000000000002,13.640000000000002 0 0,1 0,22.32 a13.640000000000002,13.640000000000002 0 0,1 0,-22.32" transform="rotate(40 200 107)" style="stroke: rgb(0, 0, 0); stroke-width: 1; fill: #FFFFFF; fill-rule: evenodd;"></path><path d="M200,82.2  a13.640000000000002,13.640000000000002 0 0,1 0,22.32 a13.640000000000002,13.640000000000002 0 0,1 0,-22.32" transform="rotate(20 200 107)" style="stroke: rgb(0, 0, 0); stroke-width: 1; fill: #FFFFFF; fill-rule: evenodd;"></path><path d="M200,82.2  a13.640000000000002,13.640000000000002 0 0,1 0,22.32 a13.640000000000002,13.640000000000002 0 0,1 0,-22.32" style="stroke: rgb(0, 0, 0); stroke-width: 1; fill: #FFFFFF; fill-rule: evenodd;"></path></g><g transform="rotate(294.54545454545456 200 200)"><path d="M200,82.2  a13.640000000000002,13.640000000000002 0 0,1 0,22.32 a13.640000000000002,13.640000000000002 0 0,1 0,-22.32" transform="rotate(-40 200 107)" style="stroke: rgb(0, 0, 0); stroke-width: 1; fill: #FFFFFF; fill-rule: evenodd;"></path><path d="M200,82.2  a13.640000000000002,13.640000000000002 0 0,1 0,22.32 a13.640000000000002,13.640000000000002 0 0,1 0,-22.32" transform="rotate(-20 200 107)" style="stroke: rgb(0, 0, 0); stroke-width: 1; fill: #FFFFFF; fill-rule: evenodd;"></path><path d="M200,82.2  a13.640000000000002,13.640000000000002 0 0,1 0,22.32 a13.640000000000002,13.640000000000002 0 0,1 0,-22.32" transform="rotate(40 200 107)" style="stroke: rgb(0, 0, 0); stroke-width: 1; fill: #FFFFFF; fill-rule: evenodd;"></path><path d="M200,82.2  a13.640000000000002,13.640000000000002 0 0,1 0,22.32 a13.640000000000002,13.640000000000002 0 0,1 0,-22.32" transform="rotate(20 200 107)" style="stroke: rgb(0, 0, 0); stroke-width: 1; fill: #FFFFFF; fill-rule: evenodd;"></path><path d="M200,82.2  a13.640000000000002,13.640000000000002 0 0,1 0,22.32 a13.640000000000002,13.640000000000002 0 0,1 0,-22.32" style="stroke: rgb(0, 0, 0); stroke-width: 1; fill: #FFFFFF; fill-rule: evenodd;"></path></g><g transform="rotate(327.27272727272725 200 200)"><path d="M200,82.2  a13.640000000000002,13.640000000000002 0 0,1 0,22.32 a13.640000000000002,13.640000000000002 0 0,1 0,-22.32" transform="rotate(-40 200 107)" style="stroke: rgb(0, 0, 0); stroke-width: 1; fill: #FFFFFF; fill-rule: evenodd;"></path><path d="M200,82.2  a13.640000000000002,13.640000000000002 0 0,1 0,22.32 a13.640000000000002,13.640000000000002 0 0,1 0,-22.32" transform="rotate(-20 200 107)" style="stroke: rgb(0, 0, 0); stroke-width: 1; fill: #FFFFFF; fill-rule: evenodd;"></path><path d="M200,82.2  a13.640000000000002,13.640000000000002 0 0,1 0,22.32 a13.640000000000002,13.640000000000002 0 0,1 0,-22.32" transform="rotate(40 200 107)" style="stroke: rgb(0, 0, 0); stroke-width: 1; fill: #FFFFFF; fill-rule: evenodd;"></path><path d="M200,82.2  a13.640000000000002,13.640000000000002 0 0,1 0,22.32 a13.640000000000002,13.640000000000002 0 0,1 0,-22.32" transform="rotate(20 200 107)" style="stroke: rgb(0, 0, 0); stroke-width: 1; fill: #FFFFFF; fill-rule: evenodd;"></path><path d="M200,82.2  a13.640000000000002,13.640000000000002 0 0,1 0,22.32 a13.640000000000002,13.640000000000002 0 0,1 0,-22.32" style="stroke: rgb(0, 0, 0); stroke-width: 1; fill: #FFFFFF; fill-rule: evenodd;"></path></g></g><g><g transform="rotate(0 200 200)"><path d="M206.53333333333333,104.45 a9.8,9.8 0 1,0 0,14.700000000000001 a7.3500000000000005,7.3500000000000005 0 0,1 0,-14.700000000000001" style="stroke: rgb(0, 0, 0); stroke-width: 1; fill: #FFFFFF; fill-rule: evenodd;"></path></g><g transform="rotate(30 200 200)"><path d="M206.53333333333333,104.45 a9.8,9.8 0 1,0 0,14.700000000000001 a7.3500000000000005,7.3500000000000005 0 0,1 0,-14.700000000000001" style="stroke: rgb(0, 0, 0); stroke-width: 1; fill: #FFFFFF; fill-rule: evenodd;"></path></g><g transform="rotate(60 200 200)"><path d="M206.53333333333333,104.45 a9.8,9.8 0 1,0 0,14.700000000000001 a7.3500000000000005,7.3500000000000005 0 0,1 0,-14.700000000000001" style="stroke: rgb(0, 0, 0); stroke-width: 1; fill: #FFFFFF; fill-rule: evenodd;"></path></g><g transform="rotate(90 200 200)"><path d="M206.53333333333333,104.45 a9.8,9.8 0 1,0 0,14.700000000000001 a7.3500000000000005,7.3500000000000005 0 0,1 0,-14.700000000000001" style="stroke: rgb(0, 0, 0); stroke-width: 1; fill: #FFFFFF; fill-rule: evenodd;"></path></g><g transform="rotate(120 200 200)"><path d="M206.53333333333333,104.45 a9.8,9.8 0 1,0 0,14.700000000000001 a7.3500000000000005,7.3500000000000005 0 0,1 0,-14.700000000000001" style="stroke: rgb(0, 0, 0); stroke-width: 1; fill: #FFFFFF; fill-rule: evenodd;"></path></g><g transform="rotate(150 200 200)"><path d="M206.53333333333333,104.45 a9.8,9.8 0 1,0 0,14.700000000000001 a7.3500000000000005,7.3500000000000005 0 0,1 0,-14.700000000000001" style="stroke: rgb(0, 0, 0); stroke-width: 1; fill: #FFFFFF; fill-rule: evenodd;"></path></g><g transform="rotate(180 200 200)"><path d="M206.53333333333333,104.45 a9.8,9.8 0 1,0 0,14.700000000000001 a7.3500000000000005,7.3500000000000005 0 0,1 0,-14.700000000000001" style="stroke: rgb(0, 0, 0); stroke-width: 1; fill: #FFFFFF; fill-rule: evenodd;"></path></g><g transform="rotate(210 200 200)"><path d="M206.53333333333333,104.45 a9.8,9.8 0 1,0 0,14.700000000000001 a7.3500000000000005,7.3500000000000005 0 0,1 0,-14.700000000000001" style="stroke: rgb(0, 0, 0); stroke-width: 1; fill: #FFFFFF; fill-rule: evenodd;"></path></g><g transform="rotate(240 200 200)"><path d="M206.53333333333333,104.45 a9.8,9.8 0 1,0 0,14.700000000000001 a7.3500000000000005,7.3500000000000005 0 0,1 0,-14.700000000000001" style="stroke: rgb(0, 0, 0); stroke-width: 1; fill: #FFFFFF; fill-rule: evenodd;"></path></g><g transform="rotate(270 200 200)"><path d="M206.53333333333333,104.45 a9.8,9.8 0 1,0 0,14.700000000000001 a7.3500000000000005,7.3500000000000005 0 0,1 0,-14.700000000000001" style="stroke: rgb(0, 0, 0); stroke-width: 1; fill: #FFFFFF; fill-rule: evenodd;"></path></g><g transform="rotate(300 200 200)"><path d="M206.53333333333333,104.45 a9.8,9.8 0 1,0 0,14.700000000000001 a7.3500000000000005,7.3500000000000005 0 0,1 0,-14.700000000000001" style="stroke: rgb(0, 0, 0); stroke-width: 1; fill: #FFFFFF; fill-rule: evenodd;"></path></g><g transform="rotate(330 200 200)"><path d="M206.53333333333333,104.45 a9.8,9.8 0 1,0 0,14.700000000000001 a7.3500000000000005,7.3500000000000005 0 0,1 0,-14.700000000000001" style="stroke: rgb(0, 0, 0); stroke-width: 1; fill: #FFFFFF; fill-rule: evenodd;"></path></g></g><!----></svg>