<svg xmlns="http://www.w3.org/2000/svg" viewBox="55 36 140 140"><defs><style>.cls-1,.cls-3{fill:#fff;}.cls-2{fill:#e5e5e5;}.cls-2,.cls-3,.cls-4{fill-rule:evenodd;}.cls-4{opacity:0.15;}.cls-5{fill:#15203b;}</style></defs><rect class="cls-1" width="200" height="200"/><path class="cls-2" d="M134.72,90A24,24,0,0,0,121,94.74a24,24,0,0,1,9.24,3.06,23.75,23.75,0,0,1,7.26,6.47A24,24,0,0,1,142.21,118a23.76,23.76,0,0,1-.8,6.73,24,24,0,0,0,3.82-5,23.35,23.35,0,0,0,2.4-5.79,24,24,0,0,0-6.18-23.1A23.4,23.4,0,0,0,134.72,90Z"/><path class="cls-3" d="M137.62,90.14a15.6,15.6,0,0,0,1.28,1.49c12.71,13.24,4.59,28.45,4.59,28.45a4.79,4.79,0,0,0,1.15.62c.2-.31.4-.64.59-1a23.35,23.35,0,0,0,2.4-5.79,24,24,0,0,0-6.18-23.1A24.29,24.29,0,0,0,137.62,90.14Z"/><path class="cls-4" d="M128.65,92.34c-19-9.22-1.18-.58-1.73-.8a23.91,23.91,0,0,0-5.92,3.2,24,24,0,0,1,9.24,3.06,23.75,23.75,0,0,1,7.26,6.47A24,24,0,0,1,142.21,118a23.44,23.44,0,0,1-.06,2.37c.44-.08.89-.17,1.34-.28C143.49,120.08,147.63,101.56,128.65,92.34Z"/><path class="cls-5" d="M142.38,89.91l-.59-.34a24.83,24.83,0,0,0-3.52-.67,23.85,23.85,0,0,0-3.58-.17,25.22,25.22,0,0,0-14.47,5l.63,2.35a22.61,22.61,0,0,1,8.73,2.9,22.35,22.35,0,0,1,10.09,12.25A22.43,22.43,0,0,1,140.9,118a21.37,21.37,0,0,1-.15,3.2,23.17,23.17,0,0,1-.61,3.16l2.2,1.26a25.8,25.8,0,0,0,4-5.25,25.76,25.76,0,0,0,1.47-3,27.7,27.7,0,0,0,1.07-3.14,25.35,25.35,0,0,0-6.53-24.36Zm4,23.68a22.09,22.09,0,0,1-1,2.81,23,23,0,0,1-1.33,2.68c-.19.34-.4.67-.6,1,0-.71,0-1.42,0-2.12a25.18,25.18,0,0,0-1.36-7.62A25.36,25.36,0,0,0,130.9,96.66a26.11,26.11,0,0,0-4.72-2.11c-.55-.18-1.11-.35-1.66-.49a22.85,22.85,0,0,1,3.4-1.48,22.43,22.43,0,0,1,6.83-1.23,22.29,22.29,0,0,1,6,.67,22.73,22.73,0,0,1,5.6,21.57Z"/><path class="cls-2" d="M134.45,113.51a24,24,0,0,1-26.92,11.17,23.95,23.95,0,0,0,33.88,0,23.76,23.76,0,0,0,.8-6.73,24,24,0,0,0-4.71-13.72A23.88,23.88,0,0,1,134.45,113.51Z"/><path class="cls-3" d="M112.17,126.75a5,5,0,0,0-.62,1.16c.31.2.64.4,1,.59a23.88,23.88,0,0,0,28.89-3.78,23.17,23.17,0,0,0,.69-3.83c-.46.35-.95.77-1.49,1.27C127.38,134.88,112.17,126.75,112.17,126.75Z"/><path class="cls-4" d="M140.71,110.18a23.73,23.73,0,0,0-3.21-5.91,23.95,23.95,0,0,1-23.24,21.21,23.44,23.44,0,0,1-2.37-.06c.08.44.17.88.28,1.33,0,0,18.52,4.15,27.74-14.83S140.49,110.74,140.71,110.18Z"/><path class="cls-5" d="M138.56,103.49l-2.35.63a21.61,21.61,0,0,1-1,4.5,22.07,22.07,0,0,1-1.9,4.23,22.35,22.35,0,0,1-12.25,10.09,22.43,22.43,0,0,1-6.83,1.23A21.57,21.57,0,0,1,111,124a23.33,23.33,0,0,1-3.15-.61l-1.27,2.2a26.56,26.56,0,0,0,2.5,2.18,25.7,25.7,0,0,0,8.87,4.38,25.29,25.29,0,0,0,24.37-6.53l.34-.58a26.32,26.32,0,0,0,.67-3.52,23.85,23.85,0,0,0,.17-3.58,25.18,25.18,0,0,0-1.36-7.62A25.54,25.54,0,0,0,138.56,103.49Zm2.19,17.73a21.46,21.46,0,0,1-.52,2.82,22.74,22.74,0,0,1-21.58,5.6,24.26,24.26,0,0,1-2.8-.95,23,23,0,0,1-2.68-1.33c-.34-.2-.68-.4-1-.61.71,0,1.42.06,2.12,0a25.29,25.29,0,0,0,14.47-5,25.45,25.45,0,0,0,8.94-12.37c.18-.56.35-1.12.49-1.68A23.1,23.1,0,0,1,140.9,118,21.37,21.37,0,0,1,140.75,121.22Z"/><path class="cls-2" d="M111.47,111.25a24.1,24.1,0,0,1-4.7-13.72,23.76,23.76,0,0,1,.8-6.73,23.59,23.59,0,0,0-3.82,5,23.92,23.92,0,0,0,3.78,28.9,23.76,23.76,0,0,0,6.73.8A24,24,0,0,0,128,120.77a24,24,0,0,1-16.51-9.52Z"/><path class="cls-3" d="M105.5,95.44a5.52,5.52,0,0,0-1.16-.63l-.59,1a23.92,23.92,0,0,0,3.78,28.9,23.17,23.17,0,0,0,3.83.69,16.93,16.93,0,0,0-1.28-1.49C97.37,110.65,105.5,95.44,105.5,95.44Z"/><path class="cls-4" d="M122.06,124a23.62,23.62,0,0,0,5.92-3.21,24,24,0,0,1-16.51-9.52,24.1,24.1,0,0,1-4.7-13.72,23.44,23.44,0,0,1,.06-2.37c-.44.08-.89.17-1.33.28,0,0-4.14,18.52,14.83,27.74S121.51,123.76,122.06,124Z"/><path class="cls-5" d="M123.62,118.48a22.55,22.55,0,0,1-4.22-1.9A22.69,22.69,0,0,1,108.08,97.5a21.57,21.57,0,0,1,.15-3.21,25,25,0,0,1,.6-3.15l-2.19-1.27a26.56,26.56,0,0,0-2.18,2.5,24.16,24.16,0,0,0-1.85,2.76,25.76,25.76,0,0,0-1.47,3,24,24,0,0,0-1.06,3.13,25.32,25.32,0,0,0,6.52,24.37l.59.34a25,25,0,0,0,3.51.67,25.46,25.46,0,0,0,3.59.17,25.29,25.29,0,0,0,14.47-5l-.63-2.35A23.23,23.23,0,0,1,123.62,118.48Zm-2.56,4.46a22.43,22.43,0,0,1-6.83,1.23,22.29,22.29,0,0,1-6-.67,22.67,22.67,0,0,1-5.6-21.58,23.21,23.21,0,0,1,1-2.81,23.67,23.67,0,0,1,1.33-2.67c.19-.34.4-.68.61-1,0,.71-.06,1.42,0,2.12a25.32,25.32,0,0,0,12.62,21.3A26.11,26.11,0,0,0,122.8,121c.55.18,1.11.34,1.66.49A22.4,22.4,0,0,1,121.06,122.94Z"/><path class="cls-2" d="M130.67,84.61a24,24,0,0,0-23.1,6.19,23.76,23.76,0,0,0-.8,6.73,24.1,24.1,0,0,0,4.7,13.72A23.94,23.94,0,0,1,134.72,90a23.4,23.4,0,0,1,6.73.8,24.17,24.17,0,0,0-10.78-6.23Z"/><path class="cls-3" d="M130.67,84.61a24,24,0,0,0-23.1,6.19,24.29,24.29,0,0,0-.7,3.83,15.63,15.63,0,0,0,1.5-1.28c13.23-12.71,28.43-4.58,28.43-4.58a4.74,4.74,0,0,0,.63-1.16c-.32-.21-.63-.4-1-.59A24,24,0,0,0,130.67,84.61Z"/><path class="cls-4" d="M136.8,88.77c.12.45.21.89.29,1.33a23.44,23.44,0,0,0-2.37-.06,24,24,0,0,0-23.25,21.21,24.09,24.09,0,0,1-3.2-5.92c.22-.55-8.42,17.24.8-1.74S136.8,88.77,136.8,88.77Z"/><path class="cls-5" d="M137.12,85.88a25.76,25.76,0,0,0-3-1.47A23.68,23.68,0,0,0,131,83.35a25.31,25.31,0,0,0-24.36,6.52l-.34.59a25,25,0,0,0-.67,3.51,24,24,0,0,0-.17,3.59,25.29,25.29,0,0,0,5,14.47l2.35-.63a23,23,0,0,1,1-4.5,22.07,22.07,0,0,1,1.9-4.23,23.36,23.36,0,0,1,2.71-3.77,22.51,22.51,0,0,1,9.54-6.32,22.43,22.43,0,0,1,6.83-1.23,21.57,21.57,0,0,1,3.21.15,21.87,21.87,0,0,1,3.15.61l1.27-2.2a25.19,25.19,0,0,0-2.5-2.18A24.16,24.16,0,0,0,137.12,85.88Zm-2.43,2.85a25.32,25.32,0,0,0-21.3,12.62,25.72,25.72,0,0,0-2.11,4.71c-.18.56-.34,1.12-.49,1.68a23.1,23.1,0,0,1-2.71-10.24,21.57,21.57,0,0,1,.15-3.21,21.32,21.32,0,0,1,.52-2.81,22.67,22.67,0,0,1,21.58-5.6,21,21,0,0,1,2.8,1,22.23,22.23,0,0,1,2.68,1.33c.34.19.68.4,1,.61C136.1,88.72,135.4,88.71,134.69,88.73Z"/></svg>